<svg width="169" height="51" viewBox="0 0 169 51" fill="none" xmlns="http://www.w3.org/2000/svg">
  <g clip-path="url(#clip0_359_177)">
    <path d="M27.9157 15.5458C27.615 15.0307 27.2456 14.6359 26.8074 14.3612C26.3692 14.0865 25.888 13.9492 25.3553 13.9578C24.8226 13.975 24.2555 14.1466 23.6712 14.49L22.3051 15.2711L25.3983 20.6273L26.7644 19.8376C27.3401 19.5028 27.7611 19.0994 28.036 18.6359C28.311 18.1638 28.4313 17.6659 28.4055 17.1337C28.3797 16.6016 28.2165 16.078 27.9157 15.5458ZM27.9157 15.5458C27.615 15.0307 27.2456 14.6359 26.8074 14.3612C26.3692 14.0865 25.888 13.9492 25.3553 13.9578C24.8226 13.975 24.2555 14.1466 23.6712 14.49L22.3051 15.2711L25.3983 20.6273L26.7644 19.8376C27.3401 19.5028 27.7611 19.0994 28.036 18.6359C28.311 18.1638 28.4313 17.6659 28.4055 17.1337C28.3797 16.6016 28.2165 16.078 27.9157 15.5458ZM33.4405 2.95349L0 22.241L12.407 43.7089H22.4598L24.5476 47.3312L26.6441 50.9535L28.732 47.3312L30.8285 43.7089H57L33.4405 2.95349ZM9.39976 31.6402L4.76002 23.6059L10.6112 20.2325L11.3674 21.5543L7.24314 23.932L8.3773 25.8977L12.2437 23.6659L12.9913 24.9535L9.12481 27.1853L10.3621 29.3312L14.6238 26.8677L15.3799 28.1895L9.39976 31.6402ZM22.202 22.4728C22.1247 23.1252 21.9013 23.7346 21.5146 24.2925C21.1366 24.8505 20.6125 25.3226 19.9595 25.7003C19.3752 26.035 18.7823 26.241 18.1723 26.3183C17.5623 26.4041 16.978 26.3526 16.3937 26.1981C15.8267 26.0265 15.2853 25.7518 14.787 25.3569C14.2973 24.9707 13.8762 24.4642 13.5326 23.8634C13.1803 23.2625 12.9569 22.6531 12.8624 22.0436C12.7765 21.4342 12.8022 20.8419 12.9569 20.2582C13.103 19.6917 13.3693 19.1595 13.7474 18.6702C14.1254 18.1981 14.598 17.7861 15.1908 17.4428C15.8524 17.0651 16.5226 16.8505 17.2014 16.799C17.8802 16.7561 18.5246 16.8591 19.1346 17.1337C19.7446 17.3913 20.2688 17.8204 20.6984 18.3956L19.0229 19.3655C18.6019 18.8505 18.1122 18.5586 17.5708 18.4814C17.0295 18.3956 16.5054 18.4986 15.9899 18.799C15.5345 19.0565 15.1994 19.3998 14.976 19.8204C14.7526 20.2325 14.6667 20.696 14.7097 21.211C14.7526 21.7346 14.9331 22.2754 15.2596 22.8419C15.5947 23.4256 15.9899 23.8719 16.4195 24.181C16.8663 24.49 17.3217 24.6445 17.8114 24.6788C18.284 24.696 18.7566 24.5758 19.2033 24.3183C19.6931 24.035 20.0368 23.6488 20.2344 23.1423C20.4406 22.6445 20.4406 22.0694 20.2172 21.4342L21.9185 20.4556C22.1848 21.1337 22.2707 21.8033 22.202 22.4728ZM29.5998 19.3226C29.1186 20.0436 28.4399 20.6531 27.5463 21.1681L24.4531 22.9535L19.8134 14.9277L22.898 13.1509C23.7915 12.6273 24.6765 12.3355 25.5357 12.2754C26.3949 12.2153 27.1682 12.3784 27.89 12.7561C28.6031 13.1423 29.196 13.7518 29.6685 14.5672C30.1411 15.3827 30.3645 16.2067 30.3387 17.0222C30.3215 17.8462 30.0724 18.6101 29.5998 19.3226ZM26.8074 14.3612C26.3692 14.0865 25.888 13.9492 25.3553 13.9578C24.8226 13.975 24.2555 14.1466 23.6712 14.49L22.3051 15.2711L25.3983 20.6273L26.7644 19.8376C27.3401 19.5028 27.7611 19.0994 28.036 18.6359C28.311 18.1638 28.4313 17.6659 28.4055 17.1337C28.3797 16.6016 28.2165 16.078 27.9157 15.5458C27.615 15.0307 27.2456 14.6359 26.8074 14.3612Z" fill="#010101"/>
  </g>
  <path d="M66.9444 42.9535V38.947L63.6372 32.755H65.0213L67.5563 37.7086L70.0914 32.755H71.4754L68.1682 38.947V42.9535H66.9444ZM81.6188 42.9535V32.755H83.7605C85.4311 32.755 86.6646 33.2115 87.461 34.1245C88.2672 35.0376 88.6703 36.2808 88.6703 37.8543C88.6703 39.4277 88.2672 40.671 87.461 41.584C86.6646 42.497 85.4311 42.9535 83.7605 42.9535H81.6188ZM82.8426 41.8317H83.7313C84.6249 41.8317 85.3388 41.6665 85.873 41.3363C86.4169 41.0061 86.8103 40.5447 87.0531 39.9522C87.2959 39.3598 87.4173 38.6604 87.4173 37.8543C87.4173 37.0481 87.2959 36.3488 87.0531 35.7563C86.8103 35.1638 86.4169 34.7025 85.873 34.3722C85.3388 34.042 84.6249 33.8769 83.7313 33.8769H82.8426V41.8317ZM90.646 42.9535V32.755H97.0128V33.8623H91.8698V37.2569H96.5757V38.3642H91.8698V41.8462H97.0128V42.9535H90.646ZM98.8574 42.9535V32.755H100.169L102.5 37.6066L104.831 32.755H106.142V42.9535H104.947V35.1153L102.966 39.2383H102.033L100.052 35.1298V42.9535H98.8574ZM111.236 43.1283C110.41 43.1283 109.701 42.9098 109.108 42.4727C108.516 42.0356 108.059 41.4237 107.739 40.637C107.428 39.8405 107.273 38.913 107.273 37.8543C107.273 36.7956 107.428 35.8729 107.739 35.0861C108.059 34.2897 108.516 33.6729 109.108 33.2358C109.701 32.7987 110.41 32.5802 111.236 32.5802C112.061 32.5802 112.77 32.7987 113.363 33.2358C113.955 33.6729 114.407 34.2897 114.718 35.0861C115.038 35.8729 115.198 36.7956 115.198 37.8543C115.198 38.913 115.038 39.8405 114.718 40.637C114.407 41.4237 113.955 42.0356 113.363 42.4727C112.77 42.9098 112.061 43.1283 111.236 43.1283ZM111.236 41.9774C112.042 41.9774 112.692 41.618 113.188 40.8992C113.693 40.1805 113.945 39.1655 113.945 37.8543C113.945 36.543 113.693 35.528 113.188 34.8093C112.692 34.0906 112.042 33.7312 111.236 33.7312C110.42 33.7312 109.764 34.0906 109.269 34.8093C108.773 35.528 108.526 36.543 108.526 37.8543C108.526 39.1655 108.773 40.1805 109.269 40.8992C109.764 41.618 110.42 41.9774 111.236 41.9774ZM120.044 43.1283C119.219 43.1283 118.505 42.9098 117.903 42.4727C117.31 42.0356 116.854 41.4237 116.533 40.637C116.222 39.8502 116.067 38.9227 116.067 37.8543C116.067 36.7956 116.222 35.8729 116.533 35.0861C116.854 34.2897 117.31 33.6729 117.903 33.2358C118.505 32.7987 119.219 32.5802 120.044 32.5802C121.093 32.5802 121.938 32.8716 122.579 33.4544C123.22 34.0274 123.594 34.7947 123.701 35.7563H122.346C122.249 35.1832 122.006 34.7025 121.618 34.3139C121.229 33.9254 120.705 33.7312 120.044 33.7312C119.199 33.7312 118.534 34.1003 118.048 34.8384C117.563 35.5669 117.32 36.5722 117.32 37.8543C117.32 39.1461 117.563 40.1562 118.048 40.8847C118.534 41.6131 119.199 41.9774 120.044 41.9774C120.734 41.9774 121.263 41.7928 121.632 41.4237C122.011 41.0546 122.249 40.5787 122.346 39.9959H123.701C123.546 40.9672 123.157 41.7345 122.536 42.2979C121.924 42.8515 121.093 43.1283 120.044 43.1283ZM125.531 42.9535V32.755H128.663C129.45 32.755 130.096 32.8862 130.601 33.1484C131.116 33.4107 131.5 33.77 131.752 34.2265C132.005 34.6733 132.131 35.1832 132.131 35.7563C132.131 36.4265 131.956 37.019 131.606 37.5337C131.267 38.0388 130.742 38.3933 130.033 38.5973L132.247 42.9535H130.791L128.736 38.7721H128.663H126.755V42.9535H125.531ZM126.755 37.6503H128.62C129.397 37.6503 129.965 37.4755 130.324 37.1258C130.693 36.7664 130.878 36.3099 130.878 35.7563C130.878 35.1735 130.698 34.7122 130.339 34.3722C129.989 34.0323 129.411 33.8623 128.605 33.8623H126.755V37.6503ZM133.553 42.9535L136.744 32.755H138.157L141.333 42.9535H139.993L139.25 40.4184H135.636L134.893 42.9535H133.553ZM137.414 34.4742L135.942 39.3986H138.944L137.472 34.4742H137.414ZM146.252 43.1283C145.426 43.1283 144.712 42.9098 144.11 42.4727C143.518 42.0356 143.061 41.4237 142.741 40.637C142.43 39.8502 142.274 38.9227 142.274 37.8543C142.274 36.7956 142.43 35.8729 142.741 35.0861C143.061 34.2897 143.518 33.6729 144.11 33.2358C144.712 32.7987 145.426 32.5802 146.252 32.5802C147.301 32.5802 148.146 32.8716 148.787 33.4544C149.428 34.0274 149.802 34.7947 149.909 35.7563H148.554C148.457 35.1832 148.214 34.7025 147.825 34.3139C147.437 33.9254 146.912 33.7312 146.252 33.7312C145.407 33.7312 144.741 34.1003 144.256 34.8384C143.77 35.5669 143.527 36.5722 143.527 37.8543C143.527 39.1461 143.77 40.1562 144.256 40.8847C144.741 41.6131 145.407 41.9774 146.252 41.9774C146.941 41.9774 147.471 41.7928 147.84 41.4237C148.219 41.0546 148.457 40.5787 148.554 39.9959H149.909C149.753 40.9672 149.365 41.7345 148.743 42.2979C148.131 42.8515 147.301 43.1283 146.252 43.1283ZM151.986 42.9535V41.8899H154.303V33.8186H151.986V32.755H157.843V33.8186H155.527V41.8899H157.843V42.9535H151.986ZM159.761 42.9535L162.951 32.755H164.364L167.541 42.9535H166.2L165.457 40.4184H161.844L161.101 42.9535H159.761ZM163.621 34.4742L162.15 39.3986H165.151L163.68 34.4742H163.621Z" fill="black"/>
  <path d="M59.0706 28.1515C58.245 28.1515 57.5311 27.933 56.9289 27.4959C56.3364 27.0588 55.8799 26.4469 55.5594 25.6602C55.2486 24.8734 55.0932 23.9459 55.0932 22.8775C55.0932 21.8188 55.2486 20.896 55.5594 20.1093C55.8799 19.3129 56.3364 18.6961 56.9289 18.259C57.5311 17.8219 58.245 17.6034 59.0706 17.6034C60.1195 17.6034 60.9646 17.8948 61.6056 18.4776C62.2467 19.0506 62.6206 19.8179 62.7274 20.7795H61.3725C61.2754 20.2064 61.0326 19.7257 60.644 19.3371C60.2555 18.9486 59.731 18.7544 59.0706 18.7544C58.2255 18.7544 57.5602 19.1235 57.0746 19.8616C56.5889 20.5901 56.3461 21.5954 56.3461 22.8775C56.3461 24.1693 56.5889 25.1794 57.0746 25.9079C57.5602 26.6363 58.2255 27.0005 59.0706 27.0005C59.7602 27.0005 60.2895 26.816 60.6586 26.4469C61.0374 26.0778 61.2754 25.6019 61.3725 25.0191H62.7274C62.572 25.9904 62.1835 26.7577 61.5619 27.3211C60.95 27.8747 60.1195 28.1515 59.0706 28.1515ZM64.5575 27.9767V17.7782H67.6898C68.4766 17.7782 69.1225 17.9094 69.6276 18.1716C70.1423 18.4338 70.526 18.7932 70.7785 19.2497C71.0311 19.6965 71.1573 20.2064 71.1573 20.7795C71.1573 21.4497 70.9825 22.0422 70.6328 22.5569C70.2929 23.062 69.7684 23.4165 69.0594 23.6205L71.2739 27.9767H69.817L67.7627 23.7953H67.6898H65.7813V27.9767H64.5575ZM65.7813 22.6735H67.6461C68.4232 22.6735 68.9914 22.4987 69.3507 22.149C69.7198 21.7896 69.9044 21.3331 69.9044 20.7795C69.9044 20.1967 69.7247 19.7354 69.3653 19.3954C69.0156 19.0555 68.4377 18.8855 67.6316 18.8855H65.7813V22.6735ZM73.3516 27.9767V17.7782H79.7183V18.8855H74.5754V22.2801H79.2813V23.3874H74.5754V26.8694H79.7183V27.9767H73.3516ZM81.3153 27.9767L84.5059 17.7782H85.9191L89.0952 27.9767H87.7548L87.0118 25.4416H83.3986L82.6556 27.9767H81.3153ZM85.1761 19.4974L83.7046 24.4218H86.7059L85.2344 19.4974H85.1761ZM93.3292 27.9767V18.8855H90.5901V17.7782H97.292V18.8855H94.553V27.9767H93.3292ZM99.7485 27.9767V26.9131H102.065V18.8418H99.7485V17.7782H105.605V18.8418H103.289V26.9131H105.605V27.9767H99.7485ZM110.684 27.9767L107.435 17.7782H108.747L111.413 26.3886L114.079 17.7782H115.405L112.141 27.9767H110.684ZM117.22 27.9767V26.9131H119.537V18.8418H117.22V17.7782H123.077V18.8418H120.76V26.9131H123.077V27.9767H117.22ZM125.475 27.9767V17.7782H127.617C129.288 17.7782 130.521 18.2347 131.317 19.1477C132.124 20.0607 132.527 21.304 132.527 22.8775C132.527 24.4509 132.124 25.6942 131.317 26.6072C130.521 27.5202 129.288 27.9767 127.617 27.9767H125.475ZM126.699 26.8549H127.588C128.481 26.8549 129.195 26.6897 129.729 26.3595C130.273 26.0293 130.667 25.5679 130.91 24.9754C131.152 24.3829 131.274 23.6836 131.274 22.8775C131.274 22.0713 131.152 21.372 130.91 20.7795C130.667 20.187 130.273 19.7257 129.729 19.3954C129.195 19.0652 128.481 18.9001 127.588 18.9001H126.699V26.8549ZM133.73 27.9767L136.921 17.7782H138.334L141.51 27.9767H140.17L139.427 25.4416H135.814L135.071 27.9767H133.73ZM137.591 19.4974L136.12 24.4218H139.121L137.649 19.4974H137.591ZM142.947 27.9767V17.7782H145.089C146.759 17.7782 147.993 18.2347 148.789 19.1477C149.595 20.0607 149.998 21.304 149.998 22.8775C149.998 24.4509 149.595 25.6942 148.789 26.6072C147.993 27.5202 146.759 27.9767 145.089 27.9767H142.947ZM144.171 26.8549H145.059C145.953 26.8549 146.667 26.6897 147.201 26.3595C147.745 26.0293 148.138 25.5679 148.381 24.9754C148.624 24.3829 148.745 23.6836 148.745 22.8775C148.745 22.0713 148.624 21.372 148.381 20.7795C148.138 20.187 147.745 19.7257 147.201 19.3954C146.667 19.0652 145.953 18.9001 145.059 18.9001H144.171V26.8549Z" fill="black"/>
  <path d="M46.253 13V2.80155H52.6197V3.90881H47.4768V7.30344H52.1826V8.4107H47.4768V11.8927H52.6197V13H46.253ZM58.2086 13.1748C57.4898 13.1748 56.8634 13.0389 56.3292 12.7669C55.8047 12.4949 55.3967 12.1161 55.1053 11.6305C54.8237 11.1449 54.678 10.5767 54.6683 9.9259H55.9504C55.9601 10.5087 56.1543 11.0137 56.5331 11.4411C56.9216 11.8587 57.4801 12.0676 58.2086 12.0676C58.8788 12.0676 59.3935 11.9073 59.7529 11.5868C60.122 11.2566 60.3066 10.8632 60.3066 10.4067C60.3066 10.0279 60.2191 9.71221 60.0443 9.45968C59.8695 9.19743 59.5829 8.96918 59.1847 8.77493C58.7962 8.57096 58.2717 8.36213 57.6112 8.14845C56.6788 7.86678 55.9989 7.48312 55.5716 6.99748C55.1442 6.51184 54.9305 5.90965 54.9305 5.1909C54.9305 4.70526 55.0568 4.26818 55.3093 3.87967C55.5618 3.49116 55.9261 3.18521 56.402 2.96181C56.8779 2.73842 57.4558 2.62672 58.1357 2.62672C58.7768 2.62672 59.3353 2.74813 59.8112 2.99095C60.2968 3.22406 60.6708 3.55429 60.933 3.98166C61.205 4.40902 61.341 4.89952 61.341 5.45315H60.0589C60.0589 5.18119 59.986 4.91409 59.8403 4.65184C59.6946 4.38959 59.4761 4.17106 59.1847 3.99622C58.8933 3.82139 58.5243 3.73398 58.0775 3.73398C57.5433 3.73398 57.0965 3.8651 56.7371 4.12735C56.3777 4.37988 56.198 4.72954 56.198 5.17633C56.198 5.51628 56.2757 5.80281 56.4311 6.03592C56.5963 6.26902 56.8634 6.4827 57.2324 6.67696C57.6015 6.8615 58.1017 7.06062 58.7331 7.2743C59.3256 7.46855 59.8306 7.69681 60.2483 7.95905C60.6756 8.21158 61.001 8.52725 61.2244 8.90605C61.4575 9.28485 61.5741 9.75592 61.5741 10.3193C61.5741 10.8729 61.4332 11.3634 61.1516 11.7908C60.8699 12.2181 60.4765 12.5581 59.9715 12.8106C59.4664 13.0534 58.8788 13.1748 58.2086 13.1748ZM66.9153 13.1748C66.0897 13.1748 65.3758 12.9563 64.7736 12.5192C64.1811 12.0821 63.7246 11.4702 63.4041 10.6835C63.0933 9.89676 62.9379 8.96918 62.9379 7.90077C62.9379 6.84208 63.0933 5.91936 63.4041 5.13262C63.7246 4.33617 64.1811 3.71941 64.7736 3.28233C65.3758 2.84526 66.0897 2.62672 66.9153 2.62672C67.9643 2.62672 68.8093 2.9181 69.4503 3.50087C70.0914 4.07393 70.4653 4.84124 70.5722 5.80281H69.2172C69.1201 5.22975 68.8773 4.74897 68.4888 4.36045C68.1002 3.97194 67.5758 3.77769 66.9153 3.77769C66.0703 3.77769 65.4049 4.14677 64.9193 4.88495C64.4337 5.61341 64.1908 6.61868 64.1908 7.90077C64.1908 9.19258 64.4337 10.2027 64.9193 10.9312C65.4049 11.6596 66.0703 12.0239 66.9153 12.0239C67.6049 12.0239 68.1342 11.8393 68.5033 11.4702C68.8821 11.1011 69.1201 10.6252 69.2172 10.0424H70.5722C70.4168 11.0137 70.0282 11.781 69.4066 12.3444C68.7947 12.898 67.9643 13.1748 66.9153 13.1748ZM75.5637 13.1748C74.8838 13.1748 74.2768 13.034 73.7426 12.7523C73.2181 12.4707 72.8004 12.0433 72.4896 11.4702C72.1885 10.8875 72.038 10.159 72.038 9.28485V2.80155H73.2618V9.32856C73.2618 10.2027 73.4755 10.8778 73.9028 11.3537C74.3302 11.8296 74.8935 12.0676 75.5928 12.0676C76.2922 12.0676 76.8507 11.8296 77.2683 11.3537C77.686 10.8778 77.8948 10.2027 77.8948 9.32856V2.80155H79.1186V9.28485C79.1186 10.159 78.9632 10.8875 78.6524 11.4702C78.3416 12.0433 77.9191 12.4707 77.3849 12.7523C76.8507 13.034 76.2436 13.1748 75.5637 13.1748ZM81.1963 13V2.80155H87.5631V3.90881H82.4201V7.30344H87.126V8.4107H82.4201V11.8927H87.5631V13H81.1963ZM89.9467 13V2.80155H91.1705V11.8927H96.3426V13H89.9467ZM97.8958 13L101.086 2.80155H102.5L105.676 13H104.335L103.592 10.465H99.9792L99.2362 13H97.8958ZM101.757 4.52072L100.285 9.44511H103.286L101.815 4.52072H101.757ZM115.848 13V2.80155H117.99C119.661 2.80155 120.894 3.25805 121.691 4.17106C122.497 5.08406 122.9 6.3273 122.9 7.90077C122.9 9.47425 122.497 10.7175 121.691 11.6305C120.894 12.5435 119.661 13 117.99 13H115.848ZM117.072 11.8782H117.961C118.854 11.8782 119.568 11.7131 120.102 11.3828C120.646 11.0526 121.04 10.5912 121.283 9.99874C121.525 9.40626 121.647 8.70694 121.647 7.90077C121.647 7.09461 121.525 6.39529 121.283 5.80281C121.04 5.21033 120.646 4.74897 120.102 4.41873C119.568 4.0885 118.854 3.92338 117.961 3.92338H117.072V11.8782ZM124.875 13V2.80155H131.242V3.90881H126.099V7.30344H130.805V8.4107H126.099V11.8927H131.242V13H124.875Z" fill="black"/>
  <defs>
    <clipPath id="clip0_359_177">
      <rect width="57" height="48" fill="white" transform="translate(0 2.95349)"/>
    </clipPath>
  </defs>
</svg>


