<svg class="brand-logo" width="145" height="37" viewBox="0 0 145 37" fill="none" xmlns="http://www.w3.org/2000/svg">
  <path d="M0 36.0076V0.00756836H24.9731L30.9468 5.97446V29.9414L24.9731 36.0076H0ZM5.97366 30.0407H24.9731V5.97446H5.97366V30.0483V30.0407Z" fill="#0B1A36"></path>
  <path d="M35.9468 36.0076V0.00756836H67.0465V5.97446H41.9204V13.9965H54.5332V19.9634H41.9204V30.0407H67.0465V36.0076H35.9468Z" fill="#0B1A36"></path>
  <path d="M72.0464 36V0H78.0201V30.0407H97.073V36.0076H72.0464V36Z" fill="#0B1A36"></path>
  <path d="M102.073 36.0076V0.00756836H108.047V36.0076H102.073Z" fill="#0B1A36"></path>
  <path d="M113.047 36.0076V0.00756836H138.173L144.147 5.97446V13.9965L140.131 18.0076L144.147 22.0186V30.0407L138.173 36.0076H113.047ZM119.021 15.0203H138.173V5.97446H119.021V15.0279V15.0203ZM119.021 30.0407H138.173V20.9872H119.021V30.0407Z" fill="#0B1A36"></path>
</svg>
